<svg width="603" height="145" viewBox="0 0 603 145" fill="none" xmlns="http://www.w3.org/2000/svg">
<mask id="mask0_35_168" style="mask-type:alpha" maskUnits="userSpaceOnUse" x="0" y="0" width="603" height="145">
<path d="M0 104.358V26.0895H17.6308V39.389H18.548C20.1786 34.9049 22.8792 31.4059 26.65 28.8921C30.4207 26.3443 34.9219 25.0704 40.1533 25.0704C45.4528 25.0704 49.9199 26.3612 53.5548 28.943C57.2236 31.4908 59.8054 34.9728 61.3001 39.389H62.1154C63.8479 35.0407 66.7694 31.5757 70.8798 28.994C75.0242 26.3782 79.933 25.0704 85.6061 25.0704C92.8079 25.0704 98.6848 27.3464 103.237 31.8985C107.789 36.4505 110.065 43.0918 110.065 51.8223V104.358H91.5679V54.6758C91.5679 49.818 90.2771 46.2681 87.6953 44.026C85.1135 41.75 81.9542 40.6119 78.2175 40.6119C73.7673 40.6119 70.2853 42.0047 67.7715 44.7903C65.2916 47.542 64.0517 51.1259 64.0517 55.542V104.358H45.9623V53.9115C45.9623 49.8689 44.7394 46.6417 42.2935 44.2298C39.8816 41.8179 36.7223 40.6119 32.8157 40.6119C30.166 40.6119 27.754 41.2913 25.5799 42.6502C23.4058 43.975 21.6733 45.8604 20.3824 48.3063C19.0915 50.7182 18.4461 53.5378 18.4461 56.765V104.358H0Z" fill="#E1E1E1"/>
<path d="M162.919 105.887C155.276 105.887 148.651 104.205 143.046 100.842C137.441 97.4788 133.093 92.7739 130.002 86.7271C126.944 80.6803 125.415 73.6144 125.415 65.5294C125.415 57.4444 126.944 50.3615 130.002 44.2808C133.093 38.2 137.441 33.4781 143.046 30.115C148.651 26.7519 155.276 25.0704 162.919 25.0704C170.562 25.0704 177.187 26.7519 182.792 30.115C188.397 33.4781 192.728 38.2 195.786 44.2808C198.877 50.3615 200.423 57.4444 200.423 65.5294C200.423 73.6144 198.877 80.6803 195.786 86.7271C192.728 92.7739 188.397 97.4788 182.792 100.842C177.187 104.205 170.562 105.887 162.919 105.887ZM163.021 91.1093C167.165 91.1093 170.63 89.9713 173.416 87.6953C176.202 85.3853 178.274 82.2939 179.633 78.4213C181.025 74.5486 181.722 70.2344 181.722 65.4785C181.722 60.6886 181.025 56.3573 179.633 52.4847C178.274 48.5781 176.202 45.4697 173.416 43.1597C170.63 40.8497 167.165 39.6947 163.021 39.6947C158.775 39.6947 155.242 40.8497 152.422 43.1597C149.637 45.4697 147.547 48.5781 146.155 52.4847C144.796 56.3573 144.116 60.6886 144.116 65.4785C144.116 70.2344 144.796 74.5486 146.155 78.4213C147.547 82.2939 149.637 85.3853 152.422 87.6953C155.242 89.9713 158.775 91.1093 163.021 91.1093Z" fill="#E1E1E1"/>
<path d="M305.762 104.358V26.0895H323.647V39.1342H324.462C325.889 34.6161 328.335 31.1341 331.8 28.6882C335.299 26.2084 339.291 24.9684 343.775 24.9684C344.794 24.9684 345.932 25.0194 347.189 25.1213C348.48 25.1893 349.55 25.3081 350.399 25.478V42.4464C349.618 42.1746 348.378 41.9368 346.679 41.733C345.015 41.4952 343.401 41.3763 341.838 41.3763C338.475 41.3763 335.452 42.1066 332.768 43.5674C330.118 44.9942 328.029 46.9814 326.501 49.5292C324.972 52.077 324.208 55.0155 324.208 58.3446V104.358H305.762Z" fill="#E1E1E1"/>
<path d="M462.095 58.4975V104.358H443.648V26.0895H461.279V39.389H462.196C463.997 35.0068 466.867 31.5248 470.808 28.943C474.783 26.3612 479.691 25.0704 485.534 25.0704C490.936 25.0704 495.641 26.2254 499.649 28.5354C503.692 30.8454 506.817 34.1915 509.025 38.5737C511.267 42.9559 512.371 48.2723 512.337 54.5229V104.358H493.891V57.3765C493.891 52.145 492.532 48.0515 489.815 45.0961C487.131 42.1406 483.411 40.6629 478.655 40.6629C475.428 40.6629 472.557 41.3763 470.044 42.803C467.564 44.1958 465.61 46.2171 464.184 48.8668C462.791 51.5165 462.095 54.7268 462.095 58.4975Z" fill="#E1E1E1"/>
<path d="M547.904 79.7971L547.854 57.5293H550.809L578.937 26.0895H600.491L565.892 64.6122H562.07L547.904 79.7971ZM531.089 104.358V0H549.535V104.358H531.089ZM580.211 104.358L554.733 68.7397L567.166 55.7459L602.275 104.358H580.211Z" fill="#E1E1E1"/>
<path fill-rule="evenodd" clip-rule="evenodd" d="M370.374 103.288C374.348 105.054 378.815 105.938 383.775 105.938C387.852 105.938 391.402 105.377 394.425 104.256C397.482 103.101 400.013 101.589 402.017 99.7209C404.056 97.8185 405.635 95.7803 406.756 93.6062H407.368V104.358H425.1V51.9751C425.1 46.7776 424.149 42.4464 422.247 38.9813C421.104 36.8615 419.732 35.015 418.131 33.4419C421.479 28.2955 421.505 25.1106 419.878 19.1594C416.396 24.3783 413.728 26.3786 406.654 26.9594C405.97 26.7506 405.273 26.5626 404.565 26.3952C400.828 25.512 397.075 25.0704 393.304 25.0704C388.889 25.0704 384.783 25.6017 380.988 26.6644C375.378 25.4754 372.81 23.31 368.954 17.5303C366.956 23.8876 366.64 27.2938 368.954 32.7967C368.224 33.4113 367.525 34.0631 366.858 34.752C363.732 37.9452 361.49 41.9198 360.132 46.6757L377.355 49.1216C378.272 46.4379 380.038 44.1109 382.654 42.1406C385.304 40.1703 388.888 39.1852 393.406 39.1852C397.686 39.1852 400.964 40.2383 403.24 42.3444C405.516 44.4506 406.654 47.4231 406.654 51.2617V51.5675C406.654 53.334 405.992 54.6418 404.667 55.4911C403.376 56.3064 401.304 56.9179 398.45 57.3255C395.597 57.6992 391.877 58.1238 387.291 58.5994C383.486 59.0071 379.801 59.6695 376.234 60.5867C372.701 61.4699 369.524 62.7778 366.705 64.5103C363.885 66.2428 361.66 68.5528 360.03 71.4403C358.399 74.3278 357.584 77.9797 357.584 82.3959C357.584 87.5254 358.722 91.8397 360.998 95.3387C363.308 98.8377 366.433 101.487 370.374 103.288ZM388.565 92.3832C392.268 92.3832 395.478 91.6529 398.196 90.1921C400.913 88.6974 403.003 86.7271 404.463 84.2812C405.958 81.8354 406.705 79.1687 406.705 76.2811V67.0581C406.128 67.5337 405.143 67.9753 403.75 68.383C402.391 68.7906 400.862 69.1473 399.164 69.453C397.465 69.7588 395.784 70.0305 394.119 70.2683C392.455 70.5061 391.011 70.7099 389.788 70.8798C387.036 71.2535 384.573 71.865 382.399 72.7142C380.225 73.5635 378.51 74.7525 377.253 76.2811C375.996 77.7759 375.367 79.7122 375.367 82.0901C375.367 85.4872 376.607 88.052 379.087 89.7845C381.567 91.517 384.726 92.3832 388.565 92.3832Z" fill="#E1E1E1"/>
<path fill-rule="evenodd" clip-rule="evenodd" d="M226.274 138.274L201.611 145L208.338 120.337L211.701 123.7C213.867 122.456 215.582 121.2 217.149 120.052L217.635 119.696C222.108 116.409 228.181 113.326 234.907 114.447C237.617 114.899 239.936 115.838 242.308 116.799C245.825 118.224 249.459 119.696 254.654 119.696C258.222 119.696 260.911 118.327 262.597 117.432C263.029 117.202 263.498 116.952 264.054 116.689C268.538 113.326 268.538 105.377 268.538 102.116L268.564 90.294H267.646C266.695 92.1964 265.302 94.1497 263.468 96.154C261.668 98.1583 259.273 99.8398 256.283 101.199C253.328 102.557 249.608 103.237 245.124 103.237C239.111 103.237 233.659 101.827 228.767 99.0075C223.909 96.154 220.037 91.9076 217.149 86.2685C214.295 80.5954 212.869 73.4955 212.869 64.9689C212.869 56.3743 214.295 49.1216 217.149 43.2107C220.037 37.2658 223.926 32.7647 228.818 29.7074C233.71 26.616 239.162 25.0704 245.175 25.0704C249.761 25.0704 253.532 25.8517 256.487 27.4143C259.476 28.943 261.854 30.7944 263.621 32.9685C265.387 35.1087 266.729 37.1299 267.646 39.0323H268.666V26.0895H286.857V105.632C286.857 112.324 285.26 117.861 282.067 122.243C278.874 126.626 274.508 129.904 268.971 132.078C265.73 133.627 262.101 134.422 260.691 134.626C255.566 135.597 241.764 133.54 236.028 130.142C230.055 128.259 227.907 131.039 224.318 133.716C223.862 134.106 223.394 134.506 222.911 134.911L226.274 138.274ZM250.27 88.7654C254.177 88.7654 257.506 87.8142 260.258 85.9118C263.009 84.0095 265.099 81.2748 266.525 77.7079C267.952 74.141 268.666 69.8607 268.666 64.867C268.666 59.9412 267.952 55.627 266.525 51.9242C265.133 48.2214 263.06 45.3508 260.309 43.3126C257.591 41.2404 254.245 40.2043 250.27 40.2043C246.16 40.2043 242.729 41.2744 239.977 43.4145C237.226 45.5547 235.153 48.4931 233.761 52.2299C232.368 55.9327 231.671 60.1451 231.671 64.867C231.671 69.6569 232.368 73.8522 233.761 77.4531C235.187 81.0201 237.277 83.8056 240.028 85.8099C242.814 87.7802 246.228 88.7654 250.27 88.7654Z" fill="#E1E1E1"/>
</mask>
<g mask="url(#mask0_35_168)">
<rect width="603.115" height="145.734" fill="white"/>
<rect width="22.4252" height="14.1361" transform="matrix(0.894214 -0.44764 0.451616 0.892212 358.463 22.0384)" fill="url(#paint0_linear_35_168)"/>
<rect width="31.0624" height="29.9029" transform="matrix(-0.675142 -0.737687 0.741401 -0.671062 211.452 156.229)" fill="url(#paint1_linear_35_168)"/>
<rect width="22.4206" height="13.4144" transform="matrix(0.87327 0.487236 -0.491361 0.870956 410.425 13.8153)" fill="url(#paint2_linear_35_168)"/>
</g>
<defs>
<linearGradient id="paint0_linear_35_168" x1="11.2126" y1="0" x2="11.2126" y2="14.1361" gradientUnits="userSpaceOnUse">
<stop stop-color="#FF0000"/>
<stop offset="1" stop-color="white"/>
</linearGradient>
<linearGradient id="paint1_linear_35_168" x1="15.5312" y1="0" x2="15.5312" y2="29.9029" gradientUnits="userSpaceOnUse">
<stop stop-color="#FF0000"/>
<stop offset="1" stop-color="white"/>
</linearGradient>
<linearGradient id="paint2_linear_35_168" x1="11.2103" y1="0" x2="11.2103" y2="13.4144" gradientUnits="userSpaceOnUse">
<stop stop-color="#FF0000"/>
<stop offset="1" stop-color="white"/>
</linearGradient>
</defs>
</svg>
