<svg width="269" height="65" viewBox="0 0 269 65" fill="none" xmlns="http://www.w3.org/2000/svg">
<path d="M0 46.5455V11.6364H7.86364V17.5682H8.27273C9 15.5682 10.2045 14.0076 11.8864 12.8864C13.5682 11.75 15.5758 11.1818 17.9091 11.1818C20.2727 11.1818 22.2652 11.7576 23.8864 12.9091C25.5227 14.0455 26.6742 15.5985 27.3409 17.5682H27.7045C28.4773 15.6288 29.7803 14.0833 31.6136 12.9318C33.4621 11.7652 35.6515 11.1818 38.1818 11.1818C41.3939 11.1818 44.0152 12.197 46.0455 14.2273C48.0758 16.2576 49.0909 19.2197 49.0909 23.1136V46.5455H40.8409V24.3864C40.8409 22.2197 40.2652 20.6364 39.1136 19.6364C37.9621 18.6212 36.553 18.1136 34.8864 18.1136C32.9015 18.1136 31.3485 18.7348 30.2273 19.9773C29.1212 21.2045 28.5682 22.803 28.5682 24.7727V46.5455H20.5V24.0455C20.5 22.2424 19.9545 20.803 18.8636 19.7273C17.7879 18.6515 16.3788 18.1136 14.6364 18.1136C13.4545 18.1136 12.3788 18.4167 11.4091 19.0227C10.4394 19.6136 9.66667 20.4545 9.09091 21.5455C8.51515 22.6212 8.22727 23.8788 8.22727 25.3182V46.5455H0Z" fill="currentColor"/>
<path d="M72.6648 47.2273C69.2557 47.2273 66.3011 46.4773 63.8011 44.9773C61.3011 43.4773 59.3617 41.3788 57.983 38.6818C56.6193 35.9849 55.9375 32.8333 55.9375 29.2273C55.9375 25.6212 56.6193 22.4621 57.983 19.75C59.3617 17.0379 61.3011 14.9318 63.8011 13.4318C66.3011 11.9318 69.2557 11.1818 72.6648 11.1818C76.0739 11.1818 79.0284 11.9318 81.5284 13.4318C84.0284 14.9318 85.9602 17.0379 87.3239 19.75C88.7026 22.4621 89.392 25.6212 89.392 29.2273C89.392 32.8333 88.7026 35.9849 87.3239 38.6818C85.9602 41.3788 84.0284 43.4773 81.5284 44.9773C79.0284 46.4773 76.0739 47.2273 72.6648 47.2273ZM72.7102 40.6364C74.5587 40.6364 76.1042 40.1288 77.3466 39.1136C78.589 38.0833 79.5133 36.7045 80.1193 34.9773C80.7405 33.25 81.0511 31.3258 81.0511 29.2045C81.0511 27.0682 80.7405 25.1364 80.1193 23.4091C79.5133 21.6667 78.589 20.2803 77.3466 19.25C76.1042 18.2197 74.5587 17.7045 72.7102 17.7045C70.8163 17.7045 69.2405 18.2197 67.983 19.25C66.7405 20.2803 65.8087 21.6667 65.1875 23.4091C64.5814 25.1364 64.2784 27.0682 64.2784 29.2045C64.2784 31.3258 64.5814 33.25 65.1875 34.9773C65.8087 36.7045 66.7405 38.0833 67.983 39.1136C69.2405 40.1288 70.8163 40.6364 72.7102 40.6364Z" fill="currentColor"/>
<path d="M136.375 46.5455V11.6364H144.352V17.4545H144.716C145.352 15.4394 146.443 13.8864 147.989 12.7955C149.549 11.6894 151.33 11.1364 153.33 11.1364C153.784 11.1364 154.292 11.1591 154.852 11.2045C155.428 11.2348 155.905 11.2879 156.284 11.3636V18.9318C155.936 18.8106 155.383 18.7045 154.625 18.6136C153.883 18.5076 153.163 18.4545 152.466 18.4545C150.966 18.4545 149.617 18.7803 148.42 19.4318C147.239 20.0682 146.307 20.9545 145.625 22.0909C144.943 23.2273 144.602 24.5379 144.602 26.0227V46.5455H136.375Z" fill="currentColor"/>
<path d="M206.102 26.0909V46.5455H197.875V11.6364H205.739V17.5682H206.148C206.951 15.6136 208.231 14.0606 209.989 12.9091C211.761 11.7576 213.951 11.1818 216.557 11.1818C218.966 11.1818 221.064 11.697 222.852 12.7273C224.655 13.7576 226.049 15.25 227.034 17.2045C228.034 19.1591 228.527 21.5303 228.511 24.3182V46.5455H220.284V25.5909C220.284 23.2576 219.678 21.4318 218.466 20.1136C217.269 18.7955 215.61 18.1364 213.489 18.1364C212.049 18.1364 210.769 18.4545 209.648 19.0909C208.542 19.7121 207.67 20.6136 207.034 21.7955C206.413 22.9773 206.102 24.4091 206.102 26.0909Z" fill="currentColor"/>
<path d="M244.375 35.5909L244.352 25.6591H245.67L258.216 11.6364H267.83L252.398 28.8182H250.693L244.375 35.5909ZM236.875 46.5455V0H245.102V46.5455H236.875ZM258.784 46.5455L247.42 30.6591L252.966 24.8636L268.625 46.5455H258.784Z" fill="currentColor"/>
<path fill-rule="evenodd" clip-rule="evenodd" d="M165.193 46.0682C166.966 46.8561 168.958 47.25 171.17 47.25C172.989 47.25 174.572 47 175.92 46.5C177.284 45.9848 178.413 45.3106 179.307 44.4773C180.216 43.6288 180.92 42.7197 181.42 41.75H181.693V46.5455H189.602V23.1818C189.602 20.8636 189.178 18.9318 188.33 17.3864C187.82 16.4409 187.208 15.6173 186.494 14.9157C187.987 12.6203 187.999 11.1998 187.273 8.54541C185.72 10.8731 184.53 11.7653 181.375 12.0244C181.07 11.9312 180.759 11.8474 180.443 11.7727C178.777 11.3788 177.102 11.1818 175.42 11.1818C173.451 11.1818 171.62 11.4188 169.927 11.8928C167.425 11.3625 166.28 10.3967 164.56 7.81881C163.669 10.6543 163.528 12.1735 164.56 14.6279C164.234 14.902 163.923 15.1927 163.625 15.5C162.231 16.9242 161.231 18.697 160.625 20.8182L168.307 21.9091C168.716 20.7121 169.504 19.6742 170.67 18.7955C171.852 17.9167 173.451 17.4773 175.466 17.4773C177.375 17.4773 178.837 17.947 179.852 18.8864C180.867 19.8258 181.375 21.1515 181.375 22.8636V23C181.375 23.7879 181.08 24.3712 180.489 24.75C179.913 25.1136 178.989 25.3864 177.716 25.5682C176.443 25.7348 174.784 25.9242 172.739 26.1364C171.042 26.3182 169.398 26.6136 167.807 27.0227C166.231 27.4167 164.814 28 163.557 28.7727C162.299 29.5455 161.307 30.5758 160.58 31.8636C159.852 33.1515 159.489 34.7803 159.489 36.75C159.489 39.0379 159.996 40.9621 161.011 42.5227C162.042 44.0833 163.436 45.2652 165.193 46.0682ZM173.307 41.2045C174.958 41.2045 176.39 40.8788 177.602 40.2273C178.814 39.5606 179.746 38.6818 180.398 37.5909C181.064 36.5 181.398 35.3106 181.398 34.0227V29.9091C181.14 30.1212 180.701 30.3182 180.08 30.5C179.473 30.6818 178.792 30.8409 178.034 30.9773C177.277 31.1136 176.527 31.2348 175.784 31.3409C175.042 31.447 174.398 31.5379 173.852 31.6136C172.625 31.7803 171.527 32.053 170.557 32.4318C169.587 32.8106 168.822 33.3409 168.261 34.0227C167.701 34.6894 167.42 35.553 167.42 36.6136C167.42 38.1288 167.973 39.2727 169.08 40.0455C170.186 40.8182 171.595 41.2045 173.307 41.2045Z" fill="currentColor"/>
<path fill-rule="evenodd" clip-rule="evenodd" d="M100.922 61.6725L89.9223 64.6725L92.9223 53.6725L94.4223 55.1725C95.3885 54.6177 96.1533 54.0574 96.8523 53.5454L97.0689 53.3864C99.0641 51.9205 101.773 50.5454 104.773 51.0454C105.981 51.2468 107.016 51.6659 108.074 52.0945C109.642 52.7299 111.263 53.3864 113.58 53.3864C115.172 53.3864 116.371 52.7761 117.123 52.3765C117.316 52.274 117.525 52.1628 117.773 52.0454C119.773 50.5454 119.773 47 119.773 45.5454L119.784 40.2727H119.375C118.951 41.1212 118.33 41.9924 117.511 42.8864C116.708 43.7803 115.64 44.5303 114.307 45.1364C112.989 45.7424 111.33 46.0455 109.33 46.0455C106.648 46.0455 104.216 45.4167 102.034 44.1591C99.8674 42.8864 98.1402 40.9924 96.8523 38.4773C95.5795 35.947 94.9432 32.7803 94.9432 28.9773C94.9432 25.1439 95.5795 21.9091 96.8523 19.2727C98.1402 16.6212 99.875 14.6136 102.057 13.25C104.239 11.8712 106.67 11.1818 109.352 11.1818C111.398 11.1818 113.08 11.5303 114.398 12.2273C115.731 12.9091 116.792 13.7348 117.58 14.7045C118.367 15.6591 118.966 16.5606 119.375 17.4091H119.83V11.6364H127.943V47.1136C127.943 50.0985 127.231 52.5682 125.807 54.5227C124.383 56.4773 122.436 57.9394 119.966 58.9091C118.52 59.6 116.902 59.9545 116.273 60.0454C113.987 60.4786 107.831 59.5613 105.273 58.0454C102.608 57.206 101.65 58.4455 100.05 59.6397C99.8464 59.8137 99.6376 59.9921 99.4223 60.1725L100.922 61.6725ZM111.625 39.5909C113.367 39.5909 114.852 39.1667 116.08 38.3182C117.307 37.4697 118.239 36.25 118.875 34.6591C119.511 33.0682 119.83 31.1591 119.83 28.9318C119.83 26.7348 119.511 24.8106 118.875 23.1591C118.254 21.5076 117.33 20.2273 116.102 19.3182C114.89 18.3939 113.398 17.9318 111.625 17.9318C109.792 17.9318 108.261 18.4091 107.034 19.3636C105.807 20.3182 104.883 21.6288 104.261 23.2955C103.64 24.947 103.33 26.8258 103.33 28.9318C103.33 31.0682 103.64 32.9394 104.261 34.5455C104.898 36.1364 105.83 37.3788 107.057 38.2727C108.299 39.1515 109.822 39.5909 111.625 39.5909Z" fill="currentColor"/>
</svg>
